<svg xmlns="http://www.w3.org/2000/svg" xmlns:xlink="http://www.w3.org/1999/xlink" width="48" height="48" viewBox="0 0 48 48"><defs><style>.a{fill:none;}.b{fill:#fc7500;}.c{fill:#fff;}.d{clip-path:url(#a);}</style><clipPath id="a"><circle class="a" cx="21.261" cy="21.261" r="21.261" transform="translate(0 0)"/></clipPath></defs><g transform="translate(1671 1481)"><circle class="b" cx="24" cy="24" r="24" transform="translate(-1671 -1481)"/><path class="c" d="M40.04,47.084a4.432,4.432,0,0,1,.6-2.241L38.895,43.2a6.772,6.772,0,0,0-1.2,3.884,6.622,6.622,0,0,0,1.295,3.884l1.693-1.693A4.183,4.183,0,0,1,40.04,47.084Z" transform="translate(-1691.571 -1503.586)"/><path class="c" d="M27.188,42.817a9.61,9.61,0,0,1,2.49-6.423L27.985,34.8A11.4,11.4,0,0,0,24.9,42.817a11.1,11.1,0,0,0,3.436,8.066h0l1.693-1.643h-.05A8.763,8.763,0,0,1,27.188,42.817Z" transform="translate(-1685.143 -1499.369)"/><path class="c" d="M20.18,28.793,18.487,27.2a18.222,18.222,0,0,0,0,24.149l1.643-1.643A15.9,15.9,0,0,1,20.18,28.793Z" transform="translate(-1679.628 -1495.553)"/><g class="d" transform="translate(-1667.764 -1478.261)"><path class="c" d="M77.755,26.338a7.32,7.32,0,0,0,1.593-1.693,16.083,16.083,0,0,0,2.091-11.1C80.2,6.321,74.021,2.686,68.1,2.487a14.988,14.988,0,0,0-10.8,3.983,15.293,15.293,0,0,0-5.477,8.913,12.8,12.8,0,0,1-1.942,4.83c-.747,1.1-1.494,2.191-2.191,3.336s-.5,1.1.448,1.444l1.544.5c.448.149.548.448.448.946a9.012,9.012,0,0,1-.448,1.295c.05.349,2.888.448,3.237.6s-1.942,1.1-1.892,1.145c-.846.3-.946.6-.5,1.2a1.494,1.494,0,0,1,.4,1c-.05.7-.2,1.344-.3,1.992A1.643,1.643,0,0,0,51.863,35.5l.846.1a40.079,40.079,0,0,1,6.921.149c3.485.846,3.585,6.473,3.585,8.863,0,.4,7.967-2.739,9.859-2.739" transform="translate(-28.61 -4.877)"/></g></g></svg>